<svg width="271" height="400" viewBox="0 0 271 400" fill="none" xmlns="http://www.w3.org/2000/svg">
<path d="M142.038 0C144.088 0 145.757 1.66871 145.757 3.71875V19.5205C154.874 33.7182 183.409 69.4089 241.638 73.4453C241.628 73.4896 237.617 91.5079 198.587 97.5996V124.021C214.389 137.022 237.881 149.552 271 151.844C270.976 151.95 266.744 170.704 225.352 176.38V223.747H241.638V251.327H262.647V274.095H6.23926V251.327H28.0898V223.747H45.6484V176.38C4.25554 170.704 0.0235701 151.95 0 151.844C33.1187 149.552 56.6112 137.022 72.4131 124.021V97.5996C33.369 91.5076 29.3717 73.488 29.3623 73.4453C87.5906 69.4217 116.126 33.7182 125.243 19.5205V3.71875C125.243 1.66871 126.912 0 128.962 0H142.038ZM47.1514 251.327H83.6318V242.809H47.1514V251.327ZM102.706 251.327H168.307V242.809H102.706V251.327ZM187.368 251.327H222.576V242.809H187.368V251.327ZM93.1689 177.145C82.5113 177.921 73.0757 178.125 64.71 177.883V223.747H93.1689V177.145ZM112.23 223.747H158.77V175.96H112.23V223.747ZM177.844 223.747H206.303V177.883C197.937 178.125 188.501 177.934 177.844 177.145V223.747ZM90.6094 123.499H112.243V97.7021H90.6094V123.499ZM124.683 123.499H146.316V97.7021H124.683V123.499ZM158.77 123.499H180.403V97.7021H158.77V123.499Z" fill="#3F3F3F"/>
<path d="M246.431 393.522V379.813C246.431 375.901 246.353 375.437 244.727 375.243L243.526 375.088C243.178 374.894 243.178 374.042 243.604 373.771C246.16 373.578 249.18 373.423 252.549 373.423C255.841 373.423 258.01 373.81 259.636 374.43C261.998 375.32 264.361 377.373 264.361 381.129C264.361 387.48 257.971 388.41 255.918 388.41C255.454 388.41 255.105 388.41 254.679 388.371C254.369 388.177 254.292 387.558 254.563 387.325C257.777 386.319 258.436 384.034 258.436 381.168C258.436 378.302 256.964 375.204 253.479 375.204C252.046 375.204 251.968 375.63 251.968 377.179V393.522C251.968 397.123 252.201 397.433 253.943 397.704L255.183 397.898C255.609 398.091 255.609 398.982 255.183 399.214C253.014 399.137 251.116 399.098 249.258 399.098C247.399 399.098 245.54 399.137 243.449 399.214C243.023 398.982 242.945 398.091 243.371 397.898L244.456 397.704C246.198 397.394 246.431 397.123 246.431 393.522Z" fill="#3F3F3F"/>
<path d="M228.617 390.346H224.28C223.351 390.346 223.234 390.385 223.002 391.121L221.569 395.613C221.337 396.387 221.298 396.697 221.298 397.007C221.298 397.239 221.608 397.472 222.692 397.665L223.854 397.859C224.086 398.13 224.164 399.021 223.776 399.214C222.421 399.137 220.872 399.137 219.246 399.098C217.929 399.098 217.038 399.214 215.257 399.214C214.831 398.982 214.87 398.169 215.141 397.859L216.186 397.743C217.116 397.626 217.89 397.317 218.549 395.806C219.207 394.257 219.904 392.398 220.95 389.61L224.435 380.161C225.326 377.721 226.061 376.366 225.945 375.243C227.804 374.817 229.237 372.919 229.314 372.919C229.818 372.919 230.05 373.113 230.205 373.694C230.515 374.817 230.979 376.25 231.948 378.999L237.214 394.18C238.028 396.503 238.376 397.394 239.809 397.626L241.281 397.859C241.513 398.052 241.59 398.982 241.242 399.214C239.383 399.137 237.292 399.098 235.278 399.098C233.342 399.098 231.831 399.137 230.05 399.214C229.624 398.982 229.547 398.169 229.973 397.859L231.212 397.665C232.103 397.51 232.257 397.239 232.257 397.007C232.257 396.736 231.986 395.806 231.522 394.374L230.476 391.043C230.282 390.423 229.973 390.346 228.617 390.346ZM225.054 388.294H228.424C229.314 388.294 229.508 388.177 229.198 387.171L228.191 384.034C227.649 382.369 227.146 380.781 226.797 379.968C226.41 380.819 225.79 382.446 225.209 384.227L224.241 387.132C223.893 388.177 224.086 388.294 225.054 388.294Z" fill="#3F3F3F"/>
<path d="M181.288 374.933L180.436 374.778C180.126 374.468 180.126 373.539 180.552 373.423C181.869 373.5 183.534 373.539 185.432 373.539C186.71 373.539 187.833 373.539 189.227 373.423C189.227 375.824 190.582 378.186 192.286 381.826L194.842 387.287C195.191 388.061 196.391 390.269 196.933 391.237C197.437 390.307 198.056 389.107 199.102 386.822L201.077 382.562C202.936 378.573 203.788 376.753 204.64 373.423C206.421 373.578 207.622 373.539 208.783 373.539C210.061 373.539 211.843 373.5 213.237 373.423C213.663 373.655 213.663 374.391 213.353 374.778L212.23 374.972C210.642 375.243 209.868 375.708 209.868 377.76C209.868 385.738 209.945 389.92 210.178 394.799C210.255 396.581 210.41 397.51 211.92 397.704L213.16 397.859C213.469 398.169 213.469 399.059 213.082 399.214C211.301 399.137 209.635 399.098 207.738 399.098C205.995 399.098 203.865 399.137 202.006 399.214C201.542 399.021 201.503 398.13 201.89 397.859L203.052 397.704C204.833 397.472 204.833 397.007 204.833 394.645L204.756 384.576V380.161H204.679C201.813 386.357 198.715 392.824 196.159 399.369C195.965 399.524 195.694 399.64 195.384 399.64C195.036 399.64 194.61 399.563 194.378 399.408C192.867 394.606 188.259 385.195 186.09 380.161H186.013C185.858 382.678 185.78 384.189 185.742 386.202C185.703 388.72 185.664 392.592 185.664 394.916C185.664 396.852 185.897 397.394 187.446 397.626L188.956 397.859C189.266 398.13 189.188 399.021 188.878 399.214C187.446 399.137 185.78 399.098 184.309 399.098C183.07 399.098 181.482 399.137 179.933 399.214C179.429 399.059 179.429 398.052 179.778 397.859L180.475 397.743C182.45 397.394 182.566 397.162 182.799 394.761C182.992 392.863 183.186 389.494 183.418 385.815C183.573 383.22 183.689 380.084 183.689 377.992C183.689 375.785 182.837 375.204 181.288 374.933Z" fill="#3F3F3F"/>
<path d="M153.254 376.831V383.608C153.254 384.692 153.292 384.769 154.338 384.769H157.01C159.024 384.769 159.489 384.498 159.876 382.64L160.069 381.671C160.341 381.362 161.309 381.362 161.502 381.71C161.425 382.949 161.386 384.344 161.386 385.815C161.386 387.287 161.425 388.681 161.502 389.92C161.309 390.269 160.341 390.307 160.069 389.959L159.876 388.991C159.489 387.132 159.024 386.822 157.01 386.822H154.338C153.292 386.822 153.254 386.861 153.254 388.022V392.631C153.254 394.412 153.409 395.651 153.873 396.31C154.377 397.007 155.113 397.317 157.94 397.317C161.309 397.317 162.625 397.2 164.755 392.824C165.065 392.398 166.033 392.553 166.188 393.018C166.033 395.032 165.104 398.169 164.562 399.214C162.509 399.137 158.792 399.098 155.616 399.098H150.582C148.723 399.098 146.825 399.137 143.921 399.214C143.611 398.982 143.611 398.052 143.921 397.859L145.741 397.588C147.484 397.317 147.716 397.084 147.716 393.522V379.077C147.716 375.553 147.484 375.32 145.741 374.972L144.773 374.778C144.424 374.546 144.463 373.655 144.85 373.423C146.67 373.5 148.568 373.539 150.427 373.539H158.637C161.115 373.539 163.322 373.5 163.826 373.423C163.865 374.042 164.136 376.831 164.329 379.425C164.174 379.851 163.284 379.929 162.896 379.58C162.47 378.225 161.928 377.063 161.425 376.521C160.689 375.785 159.527 375.32 157.63 375.32H154.532C153.254 375.32 153.254 375.398 153.254 376.831Z" fill="#3F3F3F"/>
<path d="M128.821 379.116V392.67C128.821 394.49 128.976 395.729 129.479 396.349C129.983 397.007 130.68 397.317 133.507 397.317C137.031 397.317 138.115 397.2 140.4 392.708C140.71 392.321 141.601 392.476 141.872 392.941C141.678 394.954 140.749 398.169 140.206 399.214C138.154 399.137 134.436 399.098 131.261 399.098H126.072C124.29 399.098 122.354 399.137 119.953 399.214C119.604 398.982 119.527 398.091 119.837 397.859L121.308 397.665C123.051 397.433 123.283 397.123 123.283 393.522V379.116C123.283 375.514 123.051 375.166 121.308 374.933L120.185 374.778C119.798 374.546 119.798 373.655 120.263 373.423C122.276 373.5 124.213 373.539 126.072 373.539C127.93 373.539 129.867 373.5 131.803 373.423C132.113 373.655 132.113 374.546 131.803 374.778L130.796 374.933C129.053 375.204 128.821 375.514 128.821 379.116Z" fill="#3F3F3F"/>
<path d="M98.957 393.522V379.813C98.957 375.901 98.8795 375.437 97.253 375.243L96.0526 375.088C95.704 374.894 95.704 374.042 96.13 373.771C98.6859 373.578 101.707 373.423 105.076 373.423C108.367 373.423 110.536 373.81 112.162 374.43C114.525 375.32 116.887 377.373 116.887 381.129C116.887 387.48 110.497 388.41 108.445 388.41C107.98 388.41 107.632 388.41 107.206 388.371C106.896 388.177 106.818 387.558 107.089 387.325C110.304 386.319 110.962 384.034 110.962 381.168C110.962 378.302 109.49 375.204 106.005 375.204C104.572 375.204 104.495 375.63 104.495 377.179V393.522C104.495 397.123 104.727 397.433 106.47 397.704L107.709 397.898C108.135 398.091 108.135 398.982 107.709 399.214C105.54 399.137 103.643 399.098 101.784 399.098C99.9251 399.098 98.0663 399.137 95.9751 399.214C95.5491 398.982 95.4717 398.091 95.8976 397.898L96.982 397.704C98.7246 397.394 98.957 397.123 98.957 393.522Z" fill="#3F3F3F"/>
<path d="M59.7599 374.933L58.9079 374.778C58.5981 374.468 58.5981 373.539 59.0241 373.423C60.3408 373.5 62.006 373.539 63.9035 373.539C65.1815 373.539 66.3045 373.539 67.6987 373.423C67.6987 375.824 69.0541 378.186 70.758 381.826L73.3139 387.287C73.6624 388.061 74.8629 390.269 75.4051 391.237C75.9085 390.307 76.5281 389.107 77.5737 386.822L79.5487 382.562C81.4076 378.573 82.2595 376.753 83.1115 373.423C84.8929 373.578 86.0934 373.539 87.2552 373.539C88.5331 373.539 90.3145 373.5 91.7086 373.423C92.1346 373.655 92.1346 374.391 91.8248 374.778L90.7018 374.972C89.114 375.243 88.3395 375.708 88.3395 377.76C88.3395 385.738 88.417 389.92 88.6493 394.799C88.7268 396.581 88.8817 397.51 90.392 397.704L91.6312 397.859C91.941 398.169 91.941 399.059 91.5537 399.214C89.7723 399.137 88.1071 399.098 86.2096 399.098C84.4669 399.098 82.337 399.137 80.4782 399.214C80.0135 399.021 79.9747 398.13 80.362 397.859L81.5238 397.704C83.3051 397.472 83.3052 397.007 83.3052 394.645L83.2277 384.576V380.161H83.1502C80.2845 386.357 77.1865 392.824 74.6306 399.369C74.4369 399.524 74.1659 399.64 73.8561 399.64C73.5075 399.64 73.0815 399.563 72.8492 399.408C71.3389 394.606 66.7305 385.195 64.5619 380.161H64.4844C64.3295 382.678 64.2521 384.189 64.2133 386.202C64.1746 388.72 64.1359 392.592 64.1359 394.916C64.1359 396.852 64.3682 397.394 65.9173 397.626L67.4276 397.859C67.7374 398.13 67.6599 399.021 67.3501 399.214C65.9173 399.137 64.2521 399.098 62.7805 399.098C61.5413 399.098 59.9535 399.137 58.4045 399.214C57.901 399.059 57.901 398.052 58.2496 397.859L58.9466 397.743C60.9217 397.394 61.0378 397.162 61.2702 394.761C61.4638 392.863 61.6574 389.494 61.8898 385.815C62.0447 383.22 62.1609 380.084 62.1609 377.992C62.1609 375.785 61.3089 375.204 59.7599 374.933Z" fill="#3F3F3F"/>
<path d="M42.8084 376.831V383.608C42.8084 384.692 42.8472 384.769 43.8927 384.769H46.5648C48.5786 384.769 49.0433 384.498 49.4305 382.64L49.6242 381.671C49.8952 381.362 50.8634 381.362 51.057 381.71C50.9796 382.949 50.9408 384.344 50.9408 385.815C50.9408 387.287 50.9796 388.681 51.057 389.92C50.8634 390.269 49.8952 390.307 49.6242 389.959L49.4305 388.991C49.0433 387.132 48.5786 386.822 46.5648 386.822H43.8927C42.8472 386.822 42.8084 386.861 42.8084 388.022V392.631C42.8084 394.412 42.9633 395.651 43.428 396.31C43.9315 397.007 44.6673 397.317 47.4942 397.317C50.8634 397.317 52.1801 397.2 54.31 392.824C54.6198 392.398 55.5879 392.553 55.7428 393.018C55.5879 395.032 54.6585 398.169 54.1164 399.214C52.0639 399.137 48.3462 399.098 45.1707 399.098H40.1364C38.2775 399.098 36.38 399.137 33.4755 399.214C33.1657 398.982 33.1657 398.052 33.4755 397.859L35.2956 397.588C37.0383 397.317 37.2706 397.084 37.2706 393.522V379.077C37.2706 375.553 37.0383 375.32 35.2956 374.972L34.3275 374.778C33.979 374.546 34.0177 373.655 34.4049 373.423C36.225 373.5 38.1226 373.539 39.9814 373.539H48.1913C50.6698 373.539 52.8771 373.5 53.3806 373.423C53.4193 374.042 53.6904 376.831 53.884 379.425C53.7291 379.851 52.8384 379.929 52.4511 379.58C52.0252 378.225 51.483 377.063 50.9796 376.521C50.2438 375.785 49.082 375.32 47.1844 375.32H44.0864C42.8084 375.32 42.8084 375.398 42.8084 376.831Z" fill="#3F3F3F"/>
<path d="M15.991 393.522V376.444C15.991 375.514 15.991 375.321 15.0616 375.321H12.6606C9.83365 375.321 9.02041 376.87 7.85863 379.697C7.39393 379.929 6.65814 379.851 6.42578 379.348C7.23902 376.676 7.43265 374.275 7.70373 372.765C7.85863 372.649 8.05226 372.571 8.24589 372.571C8.43952 372.571 8.63315 372.61 8.78805 372.726C8.98168 373.384 9.09786 373.539 12.041 373.539H26.447C29.0029 373.539 29.5838 373.5 29.9323 372.687C30.0872 372.61 30.2034 372.571 30.4358 372.571C30.6681 372.571 30.9392 372.726 31.0166 372.842C30.6294 374.159 30.3583 377.296 30.4358 379.503C30.2421 379.851 29.1965 379.929 29.0029 379.619C28.3446 377.141 27.8024 375.321 24.898 375.321H22.5744C21.645 375.321 21.5288 375.437 21.5288 376.444V393.522C21.5288 397.123 21.7612 397.433 23.5038 397.665L25.0529 397.859C25.324 398.091 25.324 398.982 25.0529 399.214C22.5357 399.137 20.5994 399.098 18.8568 399.098C16.9979 399.098 14.9842 399.137 12.2734 399.214C11.9636 398.982 11.9636 398.091 12.2734 397.859L14.016 397.665C15.7587 397.472 15.991 397.123 15.991 393.522Z" fill="#3F3F3F"/>
<path d="M241.15 341.346H236.813C235.884 341.346 235.768 341.385 235.535 342.121L234.102 346.613C233.87 347.387 233.831 347.697 233.831 348.007C233.831 348.239 234.141 348.472 235.225 348.665L236.387 348.859C236.619 349.13 236.697 350.021 236.31 350.214C234.954 350.137 233.405 350.137 231.779 350.098C230.462 350.098 229.571 350.214 227.79 350.214C227.364 349.982 227.403 349.169 227.674 348.859L228.719 348.743C229.649 348.626 230.423 348.317 231.082 346.806C231.74 345.257 232.437 343.398 233.483 340.61L236.968 331.161C237.859 328.721 238.595 327.366 238.478 326.243C240.337 325.817 241.77 323.919 241.847 323.919C242.351 323.919 242.583 324.113 242.738 324.694C243.048 325.817 243.513 327.25 244.481 329.999L249.748 345.18C250.561 347.503 250.909 348.394 252.342 348.626L253.814 348.859C254.046 349.052 254.124 349.982 253.775 350.214C251.916 350.137 249.825 350.098 247.811 350.098C245.875 350.098 244.365 350.137 242.583 350.214C242.157 349.982 242.08 349.169 242.506 348.859L243.745 348.665C244.636 348.51 244.791 348.239 244.791 348.007C244.791 347.736 244.52 346.806 244.055 345.374L243.009 342.043C242.816 341.423 242.506 341.346 241.15 341.346ZM237.588 339.294H240.957C241.847 339.294 242.041 339.177 241.731 338.171L240.724 335.034C240.182 333.369 239.679 331.781 239.33 330.968C238.943 331.819 238.323 333.446 237.743 335.227L236.774 338.132C236.426 339.177 236.619 339.294 237.588 339.294Z" fill="#3F3F3F"/>
<path d="M203.741 344.522V330.813C203.741 326.94 203.664 326.514 202.037 326.282L200.992 326.127C200.604 325.933 200.604 324.965 201.069 324.771C203.974 324.578 206.994 324.423 210.673 324.423C213.965 324.423 216.792 324.926 218.263 325.817C220.51 327.134 221.671 329.07 221.671 331.548C221.671 334.995 219.348 336.467 217.566 337.357C217.179 337.551 217.179 337.783 217.373 338.209C219.929 343.398 221.516 346.303 223.375 347.891C224.382 348.704 225.389 348.936 225.97 348.975C226.318 349.169 226.318 349.75 226.125 349.982C225.505 350.253 224.266 350.33 223.065 350.33C219.503 350.33 217.257 349.052 215.553 346.264C214.313 344.212 213.423 342.314 212.532 340.262C212.067 339.216 211.448 338.906 210.48 338.906C209.124 338.906 209.047 338.984 209.047 339.758V344.522C209.047 348.084 209.279 348.355 211.022 348.665L212.067 348.859C212.338 349.052 212.338 349.982 212.067 350.214C210.015 350.137 208.233 350.098 206.375 350.098C204.438 350.098 202.734 350.137 200.721 350.214C200.411 349.982 200.411 349.052 200.721 348.859L201.766 348.665C203.509 348.355 203.741 348.084 203.741 344.522ZM209.047 328.179V335.731C209.047 337.086 209.163 337.202 211.448 337.202C212.842 337.202 213.655 336.854 214.391 336.118C215.049 335.46 215.785 334.22 215.785 331.936C215.785 328.45 213.732 326.204 210.712 326.204C209.124 326.204 209.047 326.32 209.047 328.179Z" fill="#3F3F3F"/>
<path d="M173.814 339.797V330.116C173.814 326.514 173.582 326.282 171.839 325.933L170.871 325.74C170.561 325.507 170.523 324.655 170.949 324.423C172.807 324.5 174.744 324.539 176.603 324.539C178.5 324.539 180.398 324.5 182.257 324.423C182.566 324.655 182.566 325.507 182.257 325.74L181.327 325.894C179.584 326.204 179.352 326.514 179.352 330.116V339.061C179.352 343.592 179.856 348.588 185.742 348.588C190.699 348.588 192.209 344.25 192.209 338.945V334.259C192.209 331.122 192.054 328.179 191.628 327.172C191.28 326.359 190.428 326.127 189.382 325.933L188.336 325.74C188.027 325.43 188.104 324.655 188.336 324.423C190.428 324.5 191.938 324.539 193.526 324.539C194.959 324.539 196.391 324.5 197.863 324.423C198.095 324.655 198.173 325.43 197.863 325.74L197.166 325.894C196.159 326.127 195.423 326.359 195.075 327.172C194.649 328.179 194.494 331.122 194.494 334.259V338.596C194.494 342.237 194.145 345.567 192.015 347.929C190.312 349.75 187.485 350.718 184.348 350.718C181.405 350.718 178.771 350.253 176.68 348.549C174.666 346.884 173.814 344.018 173.814 339.797Z" fill="#3F3F3F"/>
<path d="M150.083 330.116V334.84C150.083 336.118 150.315 336.273 150.78 336.273C151.593 336.273 153.142 334.801 153.762 334.027C155.814 331.548 157.712 329.264 158.951 327.443C159.299 326.94 159.454 326.591 159.454 326.437C159.454 326.282 159.299 326.011 158.796 325.933L157.905 325.778C157.479 325.507 157.557 324.578 158.06 324.423C160.035 324.5 161.468 324.539 162.862 324.539C164.295 324.539 165.999 324.5 167.548 324.423C168.013 324.578 168.051 325.468 167.742 325.778C166.386 325.933 165.224 326.127 164.411 326.475C162.862 327.095 161.197 328.567 158.68 331.432L156.898 333.446C156.511 333.872 156.395 334.182 156.395 334.337C156.395 334.53 156.627 334.995 157.789 336.738C159.725 339.642 162.01 343.36 164.644 346.845C165.689 348.239 166.425 348.51 167.509 348.665L168.748 348.859C168.981 349.207 168.981 350.021 168.632 350.214C166.696 350.137 164.837 350.098 163.056 350.098C161.081 350.098 159.144 350.137 156.976 350.214C156.472 350.059 156.472 349.091 156.898 348.859L157.867 348.626C158.292 348.51 158.525 348.394 158.525 348.239C158.525 348.084 158.447 347.813 158.215 347.465C157.983 347.116 156.356 344.599 155.969 344.018L153.916 340.881C152.522 338.751 151.864 337.822 151.012 337.822C150.121 337.822 150.083 338.364 150.083 340.455V344.522C150.083 348.123 150.315 348.472 152.058 348.704L153.142 348.859C153.452 349.13 153.452 349.982 153.142 350.214C151.089 350.137 149.153 350.098 147.294 350.098C145.552 350.098 143.538 350.137 141.486 350.214C141.176 349.982 141.176 349.091 141.486 348.859L142.57 348.704C144.312 348.472 144.545 348.123 144.545 344.522V330.116C144.545 326.514 144.312 326.166 142.57 325.933L141.486 325.778C141.06 325.546 141.06 324.655 141.486 324.423C143.422 324.5 145.358 324.539 147.294 324.539C149.153 324.539 151.089 324.5 153.142 324.423C153.49 324.655 153.49 325.546 153.142 325.778L152.058 325.933C150.315 326.166 150.083 326.514 150.083 330.116Z" fill="#3F3F3F"/>
<path d="M126.731 341.346H122.394C121.465 341.346 121.349 341.385 121.116 342.121L119.683 346.613C119.451 347.387 119.412 347.697 119.412 348.007C119.412 348.239 119.722 348.472 120.806 348.665L121.968 348.859C122.201 349.13 122.278 350.021 121.891 350.214C120.535 350.137 118.986 350.137 117.36 350.098C116.043 350.098 115.152 350.214 113.371 350.214C112.945 349.982 112.984 349.169 113.255 348.859L114.301 348.743C115.23 348.626 116.004 348.317 116.663 346.806C117.321 345.257 118.018 343.398 119.064 340.61L122.549 331.161C123.44 328.721 124.176 327.366 124.059 326.243C125.918 325.817 127.351 323.919 127.429 323.919C127.932 323.919 128.164 324.113 128.319 324.694C128.629 325.817 129.094 327.25 130.062 329.999L135.329 345.18C136.142 347.503 136.49 348.394 137.923 348.626L139.395 348.859C139.627 349.052 139.705 349.982 139.356 350.214C137.497 350.137 135.406 350.098 133.392 350.098C131.456 350.098 129.946 350.137 128.164 350.214C127.738 349.982 127.661 349.169 128.087 348.859L129.326 348.665C130.217 348.51 130.372 348.239 130.372 348.007C130.372 347.736 130.101 346.806 129.636 345.374L128.59 342.043C128.397 341.423 128.087 341.346 126.731 341.346ZM123.169 339.294H126.538C127.429 339.294 127.622 339.177 127.312 338.171L126.305 335.034C125.763 333.369 125.26 331.781 124.911 330.968C124.524 331.819 123.904 333.446 123.324 335.227L122.355 338.132C122.007 339.177 122.201 339.294 123.169 339.294Z" fill="#3F3F3F"/>
<path d="M79.4025 325.933L78.5505 325.778C78.2407 325.468 78.2407 324.539 78.6667 324.423C79.9833 324.5 81.6486 324.539 83.5461 324.539C84.8241 324.539 85.9471 324.539 87.3412 324.423C87.3412 326.824 88.6966 329.186 90.4006 332.826L92.9565 338.287C93.305 339.061 94.5055 341.269 95.0477 342.237C95.5511 341.307 96.1707 340.107 97.2163 337.822L99.1913 333.562C101.05 329.573 101.902 327.753 102.754 324.423C104.535 324.578 105.736 324.539 106.898 324.539C108.176 324.539 109.957 324.5 111.351 324.423C111.777 324.655 111.777 325.391 111.467 325.778L110.344 325.972C108.757 326.243 107.982 326.708 107.982 328.76C107.982 336.738 108.06 340.92 108.292 345.799C108.369 347.581 108.524 348.51 110.035 348.704L111.274 348.859C111.584 349.169 111.584 350.059 111.196 350.214C109.415 350.137 107.75 350.098 105.852 350.098C104.109 350.098 101.98 350.137 100.121 350.214C99.656 350.021 99.6173 349.13 100.005 348.859L101.166 348.704C102.948 348.472 102.948 348.007 102.948 345.645L102.87 335.576V331.161H102.793C99.9271 337.357 96.8291 343.824 94.2731 350.369C94.0795 350.524 93.8084 350.64 93.4986 350.64C93.1501 350.64 92.7241 350.563 92.4918 350.408C90.9815 345.606 86.3731 336.195 84.2044 331.161H84.127C83.9721 333.678 83.8946 335.189 83.8559 337.202C83.8172 339.72 83.7785 343.592 83.7785 345.916C83.7785 347.852 84.0108 348.394 85.5599 348.626L87.0702 348.859C87.38 349.13 87.3025 350.021 86.9927 350.214C85.5599 350.137 83.8946 350.098 82.4231 350.098C81.1838 350.098 79.5961 350.137 78.0471 350.214C77.5436 350.059 77.5436 349.052 77.8922 348.859L78.5892 348.743C80.5642 348.394 80.6804 348.162 80.9128 345.761C81.1064 343.863 81.3 340.494 81.5324 336.815C81.6873 334.22 81.8035 331.084 81.8035 328.992C81.8035 326.785 80.9515 326.204 79.4025 325.933Z" fill="#3F3F3F"/>
<path d="M62.7676 341.346H58.4303C57.5009 341.346 57.3847 341.385 57.1524 342.121L55.7195 346.613C55.4872 347.387 55.4484 347.697 55.4484 348.007C55.4484 348.239 55.7582 348.472 56.8426 348.665L58.0043 348.859C58.2367 349.13 58.3141 350.021 57.9269 350.214C56.5715 350.137 55.0224 350.137 53.396 350.098C52.0793 350.098 51.1886 350.214 49.4072 350.214C48.9812 349.982 49.02 349.169 49.291 348.859L50.3366 348.743C51.266 348.626 52.0406 348.317 52.6989 346.806C53.3572 345.257 54.0543 343.398 55.0999 340.61L58.5852 331.161C59.4759 328.721 60.2117 327.366 60.0955 326.243C61.9544 325.817 63.3872 323.919 63.4647 323.919C63.9681 323.919 64.2005 324.113 64.3554 324.694C64.6652 325.817 65.1299 327.25 66.098 329.999L71.3647 345.18C72.178 347.503 72.5265 348.394 73.9594 348.626L75.4309 348.859C75.6633 349.052 75.7407 349.982 75.3922 350.214C73.5334 350.137 71.4422 350.098 69.4284 350.098C67.4921 350.098 65.9818 350.137 64.2005 350.214C63.7745 349.982 63.697 349.169 64.123 348.859L65.3622 348.665C66.2529 348.51 66.4078 348.239 66.4078 348.007C66.4078 347.736 66.1367 346.806 65.672 345.374L64.6264 342.043C64.4328 341.423 64.123 341.346 62.7676 341.346ZM59.2048 339.294H62.574C63.4647 339.294 63.6583 339.177 63.3485 338.171L62.3416 335.034C61.7995 333.369 61.296 331.781 60.9475 330.968C60.5602 331.819 59.9406 333.446 59.3597 335.227L58.3916 338.132C58.0431 339.177 58.2367 339.294 59.2048 339.294Z" fill="#3F3F3F"/>
<path d="M28.5748 330.116V334.84C28.5748 336.118 28.8072 336.273 29.2719 336.273C30.0851 336.273 31.6341 334.801 32.2538 334.027C34.3062 331.548 36.2038 329.264 37.443 327.443C37.7915 326.94 37.9464 326.591 37.9464 326.437C37.9464 326.282 37.7915 326.011 37.2881 325.933L36.3974 325.778C35.9714 325.507 36.0489 324.578 36.5523 324.423C38.5273 324.5 39.9602 324.539 41.3543 324.539C42.7872 324.539 44.4911 324.5 46.0401 324.423C46.5048 324.578 46.5436 325.468 46.2338 325.778C44.8784 325.933 43.7166 326.127 42.9033 326.475C41.3543 327.095 39.6891 328.567 37.1719 331.432L35.3905 333.446C35.0033 333.872 34.8871 334.182 34.8871 334.337C34.8871 334.53 35.1195 334.995 36.2812 336.738C38.2175 339.642 40.5023 343.36 43.1357 346.845C44.1813 348.239 44.9171 348.51 46.0014 348.665L47.2406 348.859C47.473 349.207 47.473 350.021 47.1245 350.214C45.1882 350.137 43.3293 350.098 41.5479 350.098C39.5729 350.098 37.6366 350.137 35.468 350.214C34.9646 350.059 34.9646 349.091 35.3905 348.859L36.3587 348.626C36.7847 348.51 37.017 348.394 37.017 348.239C37.017 348.084 36.9396 347.813 36.7072 347.465C36.4749 347.116 34.8484 344.599 34.4611 344.018L32.4087 340.881C31.0145 338.751 30.3562 337.822 29.5042 337.822C28.6135 337.822 28.5748 338.364 28.5748 340.455V344.522C28.5748 348.123 28.8072 348.472 30.5498 348.704L31.6341 348.859C31.944 349.13 31.944 349.982 31.6341 350.214C29.5817 350.137 27.6454 350.098 25.7866 350.098C24.0439 350.098 22.0302 350.137 19.9777 350.214C19.6679 349.982 19.6679 349.091 19.9777 348.859L21.062 348.704C22.8047 348.472 23.037 348.123 23.037 344.522V330.116C23.037 326.514 22.8047 326.166 21.062 325.933L19.9777 325.778C19.5517 325.546 19.5517 324.655 19.9777 324.423C21.914 324.5 23.8503 324.539 25.7866 324.539C27.6454 324.539 29.5817 324.5 31.6341 324.423C31.9827 324.655 31.9827 325.546 31.6341 325.778L30.5498 325.933C28.8072 326.166 28.5748 326.514 28.5748 330.116Z" fill="#3F3F3F"/>
</svg>
