<svg width="60" height="60" viewBox="0 0 60 60" fill="none" xmlns="http://www.w3.org/2000/svg">
<g clip-path="url(#clip0_39_167)">
<circle cx="30" cy="30" r="30" fill="white"/>
<path d="M12.76 24.3971C13.0709 23.7749 13.8273 23.5225 14.4495 23.8334C15.5714 24.3939 17.1261 24.523 18.5307 24.4666C19.21 24.4393 19.8097 24.3708 20.2385 24.3092C20.4522 24.2785 20.6217 24.2497 20.7353 24.2292C20.792 24.2189 20.8347 24.2107 20.8618 24.2053C20.8754 24.2027 20.885 24.2007 20.8906 24.1996C20.8934 24.199 20.8951 24.1986 20.8958 24.1985C20.896 24.1984 20.8961 24.1984 20.8962 24.1984C20.8962 24.1984 20.8961 24.1984 20.896 24.1985C21.576 24.055 22.2439 24.4896 22.388 25.1696C22.5322 25.8501 22.0975 26.5186 21.4171 26.6628L21.1346 25.3298C21.1415 25.3625 21.1486 25.3962 21.156 25.4308C21.41 26.6295 21.4166 26.6619 21.4165 26.6629C21.4164 26.6629 21.4161 26.663 21.4158 26.663C21.4154 26.6631 21.4148 26.6632 21.4142 26.6634C21.413 26.6636 21.4114 26.664 21.4097 26.6644C21.4061 26.6651 21.4014 26.666 21.3957 26.6672C21.3843 26.6695 21.3687 26.6727 21.349 26.6766C21.3097 26.6844 21.2541 26.695 21.1839 26.7077C21.0434 26.7331 20.8437 26.7669 20.5968 26.8023C20.1043 26.8731 19.4165 26.9518 18.6318 26.9834C17.1084 27.0446 15.0284 26.9383 13.3237 26.0866C12.7015 25.7757 12.4492 25.0193 12.76 24.3971Z" fill="#00677C"/>
<path d="M45.4994 23.8334C46.1216 23.5225 46.8779 23.7749 47.1888 24.3971C47.4997 25.0193 47.2473 25.7757 46.6251 26.0866C44.9204 26.9383 42.8404 27.0446 41.317 26.9834C40.5323 26.9518 39.8445 26.8731 39.352 26.8023C39.1051 26.7669 38.9054 26.7331 38.765 26.7077C38.6947 26.695 38.6391 26.6844 38.5998 26.6766C38.5801 26.6727 38.5645 26.6695 38.5531 26.6672C38.5474 26.666 38.5428 26.6651 38.5392 26.6644C38.5374 26.664 38.5359 26.6636 38.5346 26.6634C38.534 26.6632 38.5335 26.6631 38.533 26.663C38.5328 26.663 38.5324 26.6629 38.5323 26.6629C38.5322 26.6619 38.5389 26.6292 38.7928 25.4308C38.8002 25.3962 38.8073 25.3625 38.8142 25.3298L38.5317 26.6628C37.8513 26.5186 37.4166 25.8501 37.5608 25.1696C37.705 24.4896 38.3728 24.0549 39.0529 24.1985C39.0528 24.1984 39.0528 24.1984 39.0527 24.1984C39.0528 24.1984 39.0529 24.1984 39.053 24.1985C39.0537 24.1986 39.0555 24.199 39.0582 24.1996C39.0638 24.2007 39.0735 24.2027 39.087 24.2053C39.1141 24.2107 39.1568 24.2189 39.2135 24.2292C39.3271 24.2497 39.4966 24.2785 39.7103 24.3092C40.1391 24.3708 40.7388 24.4393 41.4181 24.4666C42.8227 24.5231 44.3774 24.3939 45.4994 23.8334Z" fill="#00677C"/>
<path d="M29.9745 14.0243C31.1 14.0243 32.0124 13.1119 32.0124 11.9863C32.0124 10.8608 31.1 9.94836 29.9745 9.94836C28.8489 9.94836 27.9365 10.8608 27.9365 11.9863C27.9365 13.1119 28.8489 14.0243 29.9745 14.0243Z" fill="#00677C"/>
<path d="M31.8025 11.9863C31.8025 10.9767 30.9841 10.1583 29.9745 10.1583C28.9649 10.1583 28.1464 10.9767 28.1464 11.9863C28.1464 12.9959 28.9649 13.8143 29.9745 13.8143V14.0242L29.9218 14.0236C28.8381 13.9961 27.9646 13.1226 27.9372 12.0389L27.9365 11.9863C27.9365 10.8608 28.849 9.94836 29.9745 9.94836L30.0271 9.949C31.1283 9.9769 32.0124 10.8784 32.0124 11.9863L32.0118 12.0389C31.9839 13.1401 31.0824 14.0242 29.9745 14.0242V13.8143C30.9841 13.8143 31.8025 12.9959 31.8025 11.9863Z" fill="#00677C"/>
<path d="M11.8913 16.5137C15.4519 15.1567 19.0046 14.964 21.8197 16.3631C24.7042 17.7965 26.4998 20.7399 26.8079 24.9453C27.0166 27.5119 26.8307 30.0679 26.4238 32.5512C26.4235 32.5533 26.4231 32.5554 26.4228 32.5575C26.3582 32.9395 26.2735 33.3252 26.2013 33.6658C26.1264 34.0195 26.0618 34.338 26.0185 34.6462C26.0169 34.6574 26.0152 34.6685 26.0133 34.6797C25.9193 35.2392 26.0288 35.477 26.096 35.5774C26.1767 35.6979 26.3523 35.8495 26.742 35.9793C27.5831 36.2593 28.7722 36.2427 29.9499 36.22H29.9986C31.1763 36.2427 32.3654 36.2593 33.2065 35.9793C33.5962 35.8495 33.7717 35.6979 33.8524 35.5774C33.9196 35.477 34.0291 35.2392 33.9352 34.6797C33.9333 34.6685 33.9316 34.6574 33.93 34.6462C33.8867 34.338 33.8221 34.0195 33.7471 33.6658C33.6749 33.3252 33.5903 32.9395 33.5257 32.5575C33.5254 32.5555 33.5251 32.5534 33.5247 32.5513C33.1172 30.0665 32.9313 27.5069 33.1414 24.9349C33.4517 20.7359 35.2468 17.7963 38.1287 16.3638C40.8998 14.9864 44.3856 15.1511 47.8903 16.451L48.0572 16.5137L48.0874 16.5257C48.7172 16.7842 49.0293 17.4993 48.7855 18.1391C48.5416 18.7789 47.8327 19.1049 47.1906 18.8786L47.1601 18.8674L47.0115 18.8115C43.8971 17.6565 41.1836 17.6582 39.2498 18.6194C37.3547 19.5614 35.9131 21.5756 35.6526 25.1295C35.6524 25.133 35.6521 25.1365 35.6519 25.1399C35.4626 27.4569 35.6268 29.8027 36.0093 32.1376L36.0302 32.2567C36.0806 32.5355 36.1429 32.8212 36.2113 33.1437C36.2859 33.4959 36.3662 33.8858 36.4227 34.2849C36.588 35.294 36.4545 36.2182 35.9455 36.9786C35.4461 37.7246 34.7028 38.1358 34.0022 38.3691C32.6731 38.8116 31.0115 38.7591 29.9742 38.7387C28.9369 38.7591 27.2753 38.8116 25.9463 38.3691C25.2457 38.1358 24.5024 37.7246 24.003 36.9786C23.4939 36.2182 23.3604 35.294 23.5257 34.2849C23.5822 33.8858 23.6626 33.4959 23.7372 33.1437C23.8151 32.7764 23.885 32.4568 23.9386 32.1408C24.3215 29.8027 24.4859 27.4559 24.2966 25.14C24.2963 25.1365 24.2961 25.1329 24.2958 25.1294C24.0354 21.5744 22.5937 19.5604 20.6987 18.6187C18.7343 17.6425 15.9652 17.6566 12.7883 18.8674C12.1384 19.1151 11.4107 18.789 11.163 18.1391C10.9153 17.4892 11.2414 16.7614 11.8913 16.5137Z" fill="#00677C"/>
<path d="M32.7039 42.5762C34.3748 42.384 36.0562 42.5862 37.522 43.451L37.5916 43.4927L37.6192 43.5099C38.192 43.8778 38.3698 44.6376 38.0144 45.2228C37.6534 45.8173 36.8788 46.0066 36.2843 45.6456C35.4117 45.1157 34.3096 44.9278 32.9976 45.0778C32.6364 45.121 32.3004 45.2111 31.8904 45.324C31.5136 45.4278 31.0269 45.5658 30.5126 45.6158L30.5127 45.6159C30.1526 45.6535 29.7898 45.6535 29.4297 45.6159V45.6158C28.9157 45.5667 28.4305 45.4291 28.0547 45.3253C27.6472 45.2127 27.3127 45.1225 26.9519 45.0781C25.6403 44.9275 24.5356 45.1155 23.6651 45.6451C23.0708 46.0066 22.2961 45.8179 21.9346 45.2237C21.5731 44.6294 21.7618 43.8547 22.3561 43.4932L22.4256 43.4515C23.8669 42.5997 25.5207 42.3906 27.1634 42.5674L27.2428 42.5762L27.2509 42.5772C27.8255 42.6471 28.3324 42.7889 28.7253 42.8974C29.1481 43.0142 29.4191 43.0856 29.6758 43.1092C29.681 43.1097 29.6862 43.1102 29.6914 43.1108C29.8775 43.1302 30.0649 43.1302 30.251 43.1108L30.2637 43.1095C30.5233 43.085 30.7969 43.0127 31.2215 42.8957C31.616 42.787 32.1237 42.6457 32.6979 42.5769C32.6999 42.5767 32.7019 42.5764 32.7039 42.5762Z" fill="#00677C"/>
<path d="M33.3478 48.2335C33.9993 47.9936 34.7224 48.3264 34.9638 48.9777C35.2055 49.6299 34.8728 50.3546 34.2206 50.5963L33.7467 49.3176C33.7584 49.3493 33.7705 49.3819 33.7829 49.4154C34.2144 50.5794 34.2203 50.5961 34.2201 50.5965L34.2156 50.5982C34.2135 50.5989 34.211 50.5999 34.208 50.6009C34.2022 50.6031 34.1947 50.6058 34.1856 50.609C34.1674 50.6155 34.1426 50.6241 34.1117 50.6346C34.05 50.6556 33.9634 50.6841 33.8546 50.7175C33.6373 50.7842 33.3295 50.8709 32.9519 50.9571C32.2006 51.1285 31.1512 51.3025 29.974 51.3025C28.7967 51.3025 27.7474 51.1285 26.9961 50.9571C26.6184 50.8709 26.3107 50.7842 26.0934 50.7175C25.9846 50.6841 25.898 50.6556 25.8363 50.6346C25.8054 50.6241 25.7806 50.6155 25.7624 50.609C25.7533 50.6058 25.7457 50.6031 25.7399 50.6009C25.737 50.5999 25.7345 50.5989 25.7324 50.5982C25.7313 50.5978 25.7304 50.5974 25.7296 50.5971C25.7291 50.597 25.7287 50.5968 25.7283 50.5967C25.7282 50.5966 25.7279 50.5965 25.7279 50.5965C25.7276 50.5964 25.7274 50.5963 26.165 49.4154C26.1775 49.3819 26.1895 49.3493 26.2013 49.3176L25.7274 50.5963C25.0752 50.3546 24.7424 49.6299 24.9841 48.9777C25.2256 48.326 25.9494 47.9933 26.6012 48.2339C26.6007 48.2337 26.6004 48.2336 26.6002 48.2335C26.5997 48.2334 26.5997 48.2334 26.6 48.2335C26.6007 48.2337 26.603 48.2346 26.6068 48.236C26.6144 48.2387 26.6281 48.2435 26.6477 48.2501C26.6868 48.2634 26.7491 48.284 26.8321 48.3095C26.9984 48.3605 27.2462 48.4306 27.5564 48.5014C28.1807 48.6438 29.0358 48.7837 29.974 48.7837C30.9121 48.7837 31.7673 48.6438 32.3916 48.5014C32.7017 48.4306 32.9496 48.3605 33.1159 48.3095C33.1989 48.284 33.2612 48.2634 33.3003 48.2501C33.3198 48.2435 33.3335 48.2387 33.3411 48.236C33.3449 48.2346 33.3473 48.2337 33.3479 48.2335C33.3483 48.2334 33.3482 48.2334 33.3478 48.2335Z" fill="#00677C"/>
<path d="M60 30C60 46.5685 46.5685 60 30 60C13.4315 60 0 46.5685 0 30C0 13.4315 13.4315 0 30 0C46.5685 0 60 13.4315 60 30ZM4.0522 30C4.0522 44.3306 15.6694 55.9478 30 55.9478C44.3306 55.9478 55.9478 44.3306 55.9478 30C55.9478 15.6694 44.3306 4.0522 30 4.0522C15.6694 4.0522 4.0522 15.6694 4.0522 30Z" fill="#00677C"/>
</g>
<defs>
<clipPath id="clip0_39_167">
<rect width="60" height="60" fill="white"/>
</clipPath>
</defs>
</svg>
