<svg width="60" height="60" viewBox="0 0 60 60" fill="none" xmlns="http://www.w3.org/2000/svg">
<g clip-path="url(#clip0_39_150)">
<circle cx="30" cy="30" r="30" fill="white"/>
<path d="M46.8189 19.6341H13.1758V22.4263H46.8189V19.6341Z" fill="#007C3B"/>
<path d="M46.3129 25.9404H13.6826V28.7326H46.3129V25.9404Z" fill="#007C3B"/>
<path d="M10.2178 14.7826L11.3686 18.6436H48.6321L49.783 14.7826C44.3626 16.59 15.64 16.59 10.2196 14.7826H10.2178Z" fill="#007C3B"/>
<path d="M18.5537 20.5312L16.418 46.9802H20.113L21.6742 20.5312H18.5537Z" fill="#007C3B"/>
<path d="M21.6737 43.8802H15.2256V47.5771H21.6737V43.8802Z" fill="#007C3B"/>
<path d="M23.0745 46.3684H13.6719V48.2168H23.0745V46.3684Z" fill="#007C3B"/>
<path d="M41.4447 20.5312L43.5803 46.9802H39.8835L38.3223 20.5312H41.4447Z" fill="#007C3B"/>
<path d="M38.3224 47.5752H44.7705V43.8783H38.3224V47.5752Z" fill="#007C3B"/>
<path d="M36.9216 48.2187H46.3242V46.3702H36.9216V48.2187Z" fill="#007C3B"/>
<path d="M31.5981 21.0311H28.3955V27.3356H31.5981V21.0311Z" fill="#007C3B"/>
<path d="M60 30C60 46.5685 46.5685 60 30 60C13.4315 60 0 46.5685 0 30C0 13.4315 13.4315 0 30 0C46.5685 0 60 13.4315 60 30ZM4.0522 30C4.0522 44.3306 15.6694 55.9478 30 55.9478C44.3306 55.9478 55.9478 44.3306 55.9478 30C55.9478 15.6694 44.3306 4.0522 30 4.0522C15.6694 4.0522 4.0522 15.6694 4.0522 30Z" fill="#007C3B"/>
</g>
<defs>
<clipPath id="clip0_39_150">
<rect width="60" height="60" fill="white"/>
</clipPath>
</defs>
</svg>
