<svg width="60" height="60" viewBox="0 0 60 60" fill="none" xmlns="http://www.w3.org/2000/svg">
<g clip-path="url(#clip0_39_140)">
<circle cx="30" cy="30" r="30" fill="white"/>
<path d="M30.9248 9.27533C31.2069 9.27533 31.4365 9.50493 31.4365 9.78705V11.9619C32.6912 13.9158 36.619 18.8282 44.6328 19.3837C44.6253 19.4167 44.0496 21.8741 38.708 22.7079V26.3437C40.8827 28.1328 44.1159 29.8574 48.6738 30.1728C48.6738 30.1728 48.1035 32.7664 42.3906 33.5497V40.0683H44.6328V43.8642H47.5234V46.998H12.2354V43.8642H15.2432V40.0683H17.6592V33.5497C11.9465 32.7664 11.377 30.1728 11.377 30.1728C15.935 29.8574 19.168 28.1329 21.3428 26.3437V22.7079C16.0028 21.8748 15.4262 19.4201 15.418 19.3837C23.4315 18.83 27.3584 13.9159 28.6133 11.9619V9.78705C28.6133 9.50505 28.843 9.27552 29.125 9.27533H30.9248ZM17.8662 43.8642H22.8867V42.6923H17.8662V43.8642ZM25.5117 43.8642H34.54V42.6923H25.5117V43.8642ZM37.1641 43.8642H42.0088V42.6923H37.1641V43.8642ZM24.1992 33.6552C22.7325 33.7621 21.4335 33.7901 20.2822 33.7568V40.0683H24.1992V33.6552ZM26.8223 40.0683H33.2275V33.4921H26.8223V40.0683ZM35.8525 40.0683H39.7695V33.7568C38.6182 33.7901 37.3193 33.7639 35.8525 33.6552V40.0683ZM23.8467 26.2724H26.8242V22.7216H23.8467V26.2724ZM28.5361 26.2724H31.5137V22.7216H28.5361V26.2724ZM33.2275 26.2724H36.2051V22.7216H33.2275V26.2724Z" fill="#FF4900"/>
<path d="M60 30C60 46.5685 46.5685 60 30 60C13.4315 60 0 46.5685 0 30C0 13.4315 13.4315 0 30 0C46.5685 0 60 13.4315 60 30ZM4.0522 30C4.0522 44.3306 15.6694 55.9478 30 55.9478C44.3306 55.9478 55.9478 44.3306 55.9478 30C55.9478 15.6694 44.3306 4.0522 30 4.0522C15.6694 4.0522 4.0522 15.6694 4.0522 30Z" fill="#FF4900"/>
</g>
<defs>
<clipPath id="clip0_39_140">
<rect width="60" height="60" fill="white"/>
</clipPath>
</defs>
</svg>
