<svg width="60" height="60" viewBox="0 0 60 60" fill="none" xmlns="http://www.w3.org/2000/svg">
<g clip-path="url(#clip0_32_369)">
<path d="M48.6735 30.1729C44.1155 29.8574 40.8823 28.1331 38.7075 26.3439V22.7076C44.0857 21.8682 44.6324 19.3833 44.6324 19.3833C36.6187 18.8278 32.6915 13.9158 31.4368 11.9618V9.78709C31.4368 9.50496 31.2072 9.27539 30.9251 9.27539H29.1254C28.8432 9.27539 28.6137 9.50496 28.6137 9.78709V11.9618C27.3589 13.9158 23.4318 18.8295 15.418 19.3833C15.418 19.3833 15.963 21.8682 21.3429 22.7076V26.3439C19.1682 28.1331 15.935 29.8574 11.377 30.1729C11.377 30.1729 11.9465 32.7664 17.6593 33.5498V40.0687H15.2428V43.8645H12.2356V46.9978H47.5239V43.8645H44.6324V40.0687H42.3911V33.5498C48.104 32.7664 48.6735 30.1729 48.6735 30.1729ZM33.2278 33.4919V40.0687H26.8227V33.4919H33.2278ZM24.1993 33.6549V40.0687H20.2827V33.7566C21.434 33.7898 22.7326 33.7618 24.1993 33.6549ZM17.8661 43.8645V42.6921H22.8868V43.8645H17.8661ZM25.5119 43.8645V42.6921H34.5403V43.8645H25.5119ZM42.0091 43.8645H37.1637V42.6921H42.0091V43.8645ZM39.7695 40.0687H35.8529V33.6549C37.3196 33.7636 38.6182 33.7898 39.7695 33.7566V40.0687Z" fill="#3F3F3F"/>
<path d="M26.824 22.7216H23.8467V26.272H26.824V22.7216Z" fill="#ECECEC"/>
<path d="M31.5135 22.7216H28.5361V26.272H31.5135V22.7216Z" fill="#ECECEC"/>
<path d="M36.2049 22.7216H33.2275V26.272H36.2049V22.7216Z" fill="#ECECEC"/>
<path d="M60 30C60 46.5685 46.5685 60 30 60C13.4315 60 0 46.5685 0 30C0 13.4315 13.4315 0 30 0C46.5685 0 60 13.4315 60 30ZM4.0522 30C4.0522 44.3306 15.6694 55.9478 30 55.9478C44.3306 55.9478 55.9478 44.3306 55.9478 30C55.9478 15.6694 44.3306 4.0522 30 4.0522C15.6694 4.0522 4.0522 15.6694 4.0522 30Z" fill="#3F3F3F"/>
</g>
<defs>
<clipPath id="clip0_32_369">
<rect width="60" height="60" fill="white"/>
</clipPath>
</defs>
</svg>
